<svg id="Layer_1" data-name="Layer 1" xmlns="http://www.w3.org/2000/svg" viewBox="0 0 334.93 296.38"><defs><style>.cls-1{fill:#fff;}</style></defs><title>Untitled-2</title><circle class="cls-1" cx="159.81" cy="148.19" r="148.18"/><path d="M202.75,403s40.12-55.64,101.09-71.94c34.11-9.12,128.74-14.4,233.84,47.13,0,0-84.63-63.74-174.19-63.53-76.71.17-103.62,15.88-105.13,18.12-2.61,3.84,7.32-1.65,7.32-1.65s25.34-57.5,97.54-84c58.63-21.54,80.83-21.49,126.11-78.57,0,0-30.83,42.19-92.87,56.94-80.12,19-108.76,34.78-141.38,91.6C221.51,375.54,202.75,403,202.75,403Z" transform="translate(-202.75 -139.81)"/><path d="M437.74,246.75s12-26.51-8.77-50.74c0,0-53.06,2.07-70.77,23.79s17,67.45,17,67.45,18.25,10.31,32.57-11.29S437.74,246.75,437.74,246.75Z" transform="translate(-202.75 -139.81)"/><path d="M386.57,289.69s-8.08,11.86-12,23.69S370.79,337,387.3,336.86c15.2-.13,26.28,2.76,33.57,5.69a111.09,111.09,0,0,1,15.35,8.05s-16.61-2.46-28.84,1.69S382.73,365,371,376c-10.26,9.54-34.67,18.4-54.86,13.67s-36.18-23.06-29.6-67.89,31.69-74.48,55.16-92.93S387,203.15,387,203.15" transform="translate(-202.75 -139.81)"/><path d="M437.3,246.05A51.52,51.52,0,0,1,441.63,258a53.31,53.31,0,0,1-1.54,28.45,14.65,14.65,0,0,0-3.21-10.34,18.05,18.05,0,0,0-9.37-5.9,9.73,9.73,0,0,0,.64,3.38,11.65,11.65,0,0,0,5.16,5.69,39.34,39.34,0,0,1-12-4.65A33.93,33.93,0,0,1,409,262Z" transform="translate(-202.75 -139.81)"/><path d="M378.14,208.74c-10.65-2.4,6.78-14.42,6.78-14.42-14.73-.29-23.3,12.45-23.3,12.45,1.6-.54-1.35-6.45-1.35-6.45-.3,3.47-7.79,10.25-7.79,10.25-2.63.52,1.32-8.4,1.32-8.4-13.51,13.23-8.87,26.38-8.87,26.38" transform="translate(-202.75 -139.81)"/><path d="M300.12,278.59s15.36-31,8.76-39.25-.19-35.06-10.18-44.52c0,0,20.94,3.13,39.86,30.85,3.43-3.27,36.61-21.72,66.52-26.85" transform="translate(-202.75 -139.81)"/><path d="M314.14,243.59a35,35,0,0,0-11.92-4.45s10.48,9,8.87,15.33" transform="translate(-202.75 -139.81)"/><path d="M305.58,269.1a15.48,15.48,0,0,0,1.53-9.63c-1.15-6.46-6.31-10-7.49-10.72,0,0,12.94-3.07,14.9.41.67,1.18-.24,2.69-1,4.05A158.13,158.13,0,0,0,305.58,269.1Z" transform="translate(-202.75 -139.81)"/><path d="M296.86,273.54" transform="translate(-202.75 -139.81)"/><path d="M376,309.42a18.39,18.39,0,0,0-1,8.16c.53,4.34,3.13,9.18,5.33,8.94a12.18,12.18,0,0,1-4.16-1.06,8.73,8.73,0,0,1-5.24-6.51,7.89,7.89,0,0,1,2-7.49A8.84,8.84,0,0,1,376,309.42Z" transform="translate(-202.75 -139.81)"/><path d="M371.28,320.46s10.37,14.63,14.05,12.35c0,0-7.29,3.1-12.45-2.61S371.28,320.46,371.28,320.46Z" transform="translate(-202.75 -139.81)"/><path d="M319.19,194l1.41,10.57s17.25,14.8,17.89,19.85l4.95-3a13.29,13.29,0,0,1,.6-5C344.89,214.25,334.54,203.78,319.19,194Z" transform="translate(-202.75 -139.81)"/><path class="cls-1" d="M343.7,230.44s-8.6,5.37-19,17.32-22.53,30.48-29.63,56.81a110.91,110.91,0,0,1,5.73-12.31c3.54-6.51,8.42-13.72,13.8-16.54,0,0,.95,8.54,7.25,18.88s20.4,19.84,41.77,27.08c0,0-18.26-7.41-30.32-23.39C318.2,279.33,320.65,255,343.7,230.44Z" transform="translate(-202.75 -139.81)"/><path class="cls-1" d="M361.62,314.67s-47.87-20.77-19.6-74.1c0,0,4.84,36.57,43,44.89,0,0-32.66-1.22-44.26-22.06C340.78,263.4,332.89,293.77,361.62,314.67Z" transform="translate(-202.75 -139.81)"/><path class="cls-1" d="M347.46,239.2s15.63,46.31,44.57,38.92c17.1-4.37,6.09-30.87-11.69-45.27,0,0,26.37,32.9,6.17,37.36C365.51,274.85,347.46,239.2,347.46,239.2Z" transform="translate(-202.75 -139.81)"/><path class="cls-1" d="M378.58,220.88s31.26,26.63,27.06,47.65c0,0,45.44-32.72,21.81-62.74,0,0,14.46,15.64-15.74,49.08C411.71,254.87,422.24,253.66,378.58,220.88Z" transform="translate(-202.75 -139.81)"/><path d="M376.59,370.24s5-5.19,14.81-9.23,24.53-6.95,33-6A111,111,0,0,0,411,353.81c-7.66-.27-17.27.17-25.07,3s-10.15,6.18-10.55,8.83A6.45,6.45,0,0,0,376.59,370.24Z" transform="translate(-202.75 -139.81)"/><path d="M293,295.4s-2.58,8-5.38,11.79-6.82,7.36-8,11.1c0,0,1.8-1.73,3.58-3.22s3.54-2.75,3.47-1.78-1.65,3.16-3.12,6.13a20.94,20.94,0,0,0-2.58,10.7s1-1.54,2.05-2.79,2.11-2.21,2.26-1a103.3,103.3,0,0,1,0,11.55c-.26,5.29-.89,10.76-2.24,12.65a34.68,34.68,0,0,0,4.47-4.24c2.09-2.42,3.9-5.44,2.78-7.84-.53-1.13-.1-10.9.47-20.39S293,295.4,293,295.4Z" transform="translate(-202.75 -139.81)"/><path d="M307.56,262s1.76-4.74-5.73-1.55c0,0,6.42-1.26,4.65,5S307.56,262,307.56,262Z" transform="translate(-202.75 -139.81)"/></svg>